<?xml version="1.0" encoding="UTF-8" standalone="no"?>
<!DOCTYPE svg PUBLIC "-//W3C//DTD SVG 20010904//EN"
              "http://www.w3.org/TR/2001/REC-SVG-20010904/DTD/svg10.dtd">

<svg xmlns="http://www.w3.org/2000/svg"
     width="4.64441mm" height="4.64441mm"
     viewBox="0 0 64 64">
  <path id="Selección"
        fill="none" stroke="black" stroke-width="1"
        d="M 22.00,36.00
           C 17.80,38.45 15.32,43.99 16.31,48.91
             17.29,53.74 19.53,51.62 18.00,58.00
             22.79,59.99 23.94,60.18 29.00,59.00
             29.00,59.00 24.00,58.00 24.00,58.00
             24.00,58.00 42.00,57.00 42.00,57.00
             42.00,57.00 36.00,58.00 36.00,58.00
             39.86,60.50 41.68,60.04 46.00,59.00
             46.00,59.00 44.00,56.00 44.00,56.00
             44.00,56.00 48.19,49.76 48.19,49.76
             49.68,45.14 45.58,37.64 43.00,34.00
             43.00,34.00 47.00,29.00 47.00,29.00
             56.77,28.43 53.99,24.92 59.00,23.00
             58.95,9.98 55.68,15.13 51.00,7.00
             40.35,8.14 40.27,15.22 33.00,7.00
             30.81,8.81 27.50,12.32 24.42,11.49
             21.84,10.80 19.33,6.74 15.00,7.67
             13.03,8.09 10.62,9.89 9.22,11.30
             4.24,16.34 4.53,23.05 10.26,27.42
             12.45,29.09 14.34,28.84 16.72,30.59
             18.15,31.65 20.67,34.57 22.00,36.00 Z
           M 13.05,12.60
           C 21.78,10.92 21.52,14.60 18.96,21.00
             18.29,22.68 17.71,25.68 15.69,26.18
             12.13,27.05 8.49,22.23 8.57,19.00
             8.65,15.61 10.45,14.16 13.05,12.60 Z
           M 48.00,27.00
           C 48.00,27.00 43.00,16.00 43.00,16.00
             45.26,13.51 47.30,11.66 50.98,12.47
             56.79,13.76 57.20,21.18 53.69,24.49
             52.01,26.07 50.12,26.45 48.00,27.00 Z
           M 41.00,27.00
           C 41.00,27.00 35.00,28.00 35.00,28.00
             35.00,28.00 35.00,25.00 35.00,25.00
             35.00,25.00 30.00,25.00 30.00,25.00
             30.00,25.00 30.00,23.00 30.00,23.00
             34.89,23.41 37.16,23.76 41.00,27.00 Z
           M 24.00,24.00
           C 24.00,24.00 26.00,26.00 26.00,26.00
             26.00,26.00 30.00,25.00 30.00,25.00
             30.00,25.00 29.00,29.00 29.00,29.00
             29.00,29.00 23.00,28.00 23.00,28.00
             23.00,28.00 24.00,24.00 24.00,24.00 Z
           M 42.00,25.00
           C 42.00,25.00 42.00,26.00 42.00,26.00
             42.00,26.00 41.00,25.00 41.00,25.00
             41.00,25.00 42.00,25.00 42.00,25.00 Z
           M 30.00,30.00
           C 30.00,30.00 30.00,31.00 30.00,31.00
             30.00,31.00 29.00,30.00 29.00,30.00
             29.00,30.00 30.00,30.00 30.00,30.00 Z
           M 36.00,30.00
           C 36.00,30.00 36.00,31.00 36.00,31.00
             36.00,31.00 35.00,30.00 35.00,30.00
             35.00,30.00 36.00,30.00 36.00,30.00 Z
           M 30.01,36.52
           C 42.70,34.95 47.02,52.23 36.00,55.43
             22.22,59.43 16.01,42.59 30.01,36.52 Z
           M 21.00,55.00
           C 21.00,55.00 21.00,56.00 21.00,56.00
             21.00,56.00 20.00,55.00 20.00,55.00
             20.00,55.00 21.00,55.00 21.00,55.00 Z
           M 23.00,56.00
           C 23.00,56.00 23.00,57.00 23.00,57.00
             23.00,57.00 22.00,56.00 22.00,56.00
             22.00,56.00 23.00,56.00 23.00,56.00 Z
           M 43.00,56.00
           C 43.00,56.00 43.00,57.00 43.00,57.00
             43.00,57.00 42.00,56.00 42.00,56.00
             42.00,56.00 43.00,56.00 43.00,56.00 Z" />
</svg>
